<svg xmlns="http://www.w3.org/2000/svg" version="1.1" xmlns:xlink="http://www.w3.org/1999/xlink" xmlns:svgjs="http://svgjs.dev/svgjs" width="1440" height="560" preserveAspectRatio="none" viewBox="0 0 1440 560"><g mask="url(&quot;#SvgjsMask1000&quot;)" fill="none"><rect width="1440" height="560" x="0" y="0" fill="#0e2a47"></rect><path d="M-94.9 551.68L-94.9 551.68" stroke="#132e65" stroke-width="1.5"></path><path d="M-94.9 551.68L-66.3 646.22" stroke="#132e65" stroke-width="1.5"></path><path d="M-94.9 551.68L110.06 543.05" stroke="#132e65" stroke-width="1.5"></path><path d="M-94.9 551.68L109.13 677.53" stroke="#132e65" stroke-width="1.5"></path><path d="M-94.9 551.68L50.32 338.99" stroke="#132e65" stroke-width="1.5"></path><path d="M-94.9 551.68L212.42 490.34" stroke="#132e65" stroke-width="1.5"></path><path d="M-66.3 646.22L-66.3 646.22" stroke="#132e65" stroke-width="1.5"></path><path d="M-66.3 646.22L109.13 677.53" stroke="#132e65" stroke-width="1.5"></path><path d="M-66.3 646.22L110.06 543.05" stroke="#132e65" stroke-width="1.5"></path><path d="M-66.3 646.22L212.42 490.34" stroke="#132e65" stroke-width="1.5"></path><path d="M50.32 338.99L50.32 338.99" stroke="#132e65" stroke-width="1.5"></path><path d="M50.32 338.99L242.95 398.21" stroke="#132e65" stroke-width="1.5"></path><path d="M50.32 338.99L110.06 543.05" stroke="#132e65" stroke-width="1.5"></path><path d="M110.06 543.05L110.06 543.05" stroke="#132e65" stroke-width="1.5"></path><path d="M110.06 543.05L212.42 490.34" stroke="#132e65" stroke-width="1.5"></path><path d="M109.13 677.53L109.13 677.53" stroke="#132e65" stroke-width="1.5"></path><path d="M109.13 677.53L110.06 543.05" stroke="#132e65" stroke-width="1.5"></path><path d="M109.13 677.53L256.7 701.01" stroke="#132e65" stroke-width="1.5"></path><path d="M242.95 398.21L242.95 398.21" stroke="#132e65" stroke-width="1.5"></path><path d="M242.95 398.21L212.42 490.34" stroke="#132e65" stroke-width="1.5"></path><path d="M242.95 398.21L354.66 390.91" stroke="#132e65" stroke-width="1.5"></path><path d="M242.95 398.21L356.3 496.79" stroke="#132e65" stroke-width="1.5"></path><path d="M242.95 398.21L110.06 543.05" stroke="#132e65" stroke-width="1.5"></path><path d="M242.95 398.21L531.92 352.19" stroke="#132e65" stroke-width="1.5"></path><path d="M212.42 490.34L212.42 490.34" stroke="#132e65" stroke-width="1.5"></path><path d="M212.42 490.34L356.3 496.79" stroke="#132e65" stroke-width="1.5"></path><path d="M212.42 490.34L354.66 390.91" stroke="#132e65" stroke-width="1.5"></path><path d="M212.42 490.34L109.13 677.53" stroke="#132e65" stroke-width="1.5"></path><path d="M212.42 490.34L256.7 701.01" stroke="#132e65" stroke-width="1.5"></path><path d="M256.7 701.01L256.7 701.01" stroke="#132e65" stroke-width="1.5"></path><path d="M256.7 701.01L403.16 652.46" stroke="#132e65" stroke-width="1.5"></path><path d="M354.66 390.91L354.66 390.91" stroke="#132e65" stroke-width="1.5"></path><path d="M354.66 390.91L356.3 496.79" stroke="#132e65" stroke-width="1.5"></path><path d="M356.3 496.79L356.3 496.79" stroke="#132e65" stroke-width="1.5"></path><path d="M403.16 652.46L403.16 652.46" stroke="#132e65" stroke-width="1.5"></path><path d="M403.16 652.46L559.71 666.37" stroke="#132e65" stroke-width="1.5"></path><path d="M403.16 652.46L356.3 496.79" stroke="#132e65" stroke-width="1.5"></path><path d="M403.16 652.46L557.07 498.89" stroke="#132e65" stroke-width="1.5"></path><path d="M403.16 652.46L212.42 490.34" stroke="#132e65" stroke-width="1.5"></path><path d="M403.16 652.46L354.66 390.91" stroke="#132e65" stroke-width="1.5"></path><path d="M531.92 352.19L531.92 352.19" stroke="#132e65" stroke-width="1.5"></path><path d="M531.92 352.19L557.07 498.89" stroke="#132e65" stroke-width="1.5"></path><path d="M531.92 352.19L677.2 400.22" stroke="#132e65" stroke-width="1.5"></path><path d="M531.92 352.19L354.66 390.91" stroke="#132e65" stroke-width="1.5"></path><path d="M557.07 498.89L557.07 498.89" stroke="#132e65" stroke-width="1.5"></path><path d="M557.07 498.89L708.03 499.12" stroke="#132e65" stroke-width="1.5"></path><path d="M557.07 498.89L677.2 400.22" stroke="#132e65" stroke-width="1.5"></path><path d="M557.07 498.89L559.71 666.37" stroke="#132e65" stroke-width="1.5"></path><path d="M557.07 498.89L356.3 496.79" stroke="#132e65" stroke-width="1.5"></path><path d="M559.71 666.37L559.71 666.37" stroke="#132e65" stroke-width="1.5"></path><path d="M559.71 666.37L710.12 702.06" stroke="#132e65" stroke-width="1.5"></path><path d="M559.71 666.37L708.03 499.12" stroke="#132e65" stroke-width="1.5"></path><path d="M677.2 400.22L677.2 400.22" stroke="#132e65" stroke-width="1.5"></path><path d="M677.2 400.22L708.03 499.12" stroke="#132e65" stroke-width="1.5"></path><path d="M677.2 400.22L822.81 358.37" stroke="#132e65" stroke-width="1.5"></path><path d="M677.2 400.22L852.49 518.23" stroke="#132e65" stroke-width="1.5"></path><path d="M708.03 499.12L708.03 499.12" stroke="#132e65" stroke-width="1.5"></path><path d="M708.03 499.12L852.49 518.23" stroke="#132e65" stroke-width="1.5"></path><path d="M710.12 702.06L710.12 702.06" stroke="#132e65" stroke-width="1.5"></path><path d="M710.12 702.06L805.19 671.92" stroke="#132e65" stroke-width="1.5"></path><path d="M817.91 208.66L817.91 208.66" stroke="#132e65" stroke-width="1.5"></path><path d="M817.91 208.66L955.37 198.96" stroke="#132e65" stroke-width="1.5"></path><path d="M817.91 208.66L822.81 358.37" stroke="#132e65" stroke-width="1.5"></path><path d="M817.91 208.66L964.28 78.96" stroke="#132e65" stroke-width="1.5"></path><path d="M822.81 358.37L822.81 358.37" stroke="#132e65" stroke-width="1.5"></path><path d="M822.81 358.37L852.49 518.23" stroke="#132e65" stroke-width="1.5"></path><path d="M822.81 358.37L996.87 402.36" stroke="#132e65" stroke-width="1.5"></path><path d="M852.49 518.23L852.49 518.23" stroke="#132e65" stroke-width="1.5"></path><path d="M852.49 518.23L941.02 517.13" stroke="#132e65" stroke-width="1.5"></path><path d="M805.19 671.92L805.19 671.92" stroke="#132e65" stroke-width="1.5"></path><path d="M805.19 671.92L948.76 687.77" stroke="#132e65" stroke-width="1.5"></path><path d="M805.19 671.92L852.49 518.23" stroke="#132e65" stroke-width="1.5"></path><path d="M805.19 671.92L708.03 499.12" stroke="#132e65" stroke-width="1.5"></path><path d="M805.19 671.92L941.02 517.13" stroke="#132e65" stroke-width="1.5"></path><path d="M991.32 -58.46L991.32 -58.46" stroke="#132e65" stroke-width="1.5"></path><path d="M991.32 -58.46L1126.03 -92.14" stroke="#132e65" stroke-width="1.5"></path><path d="M991.32 -58.46L964.28 78.96" stroke="#132e65" stroke-width="1.5"></path><path d="M964.28 78.96L964.28 78.96" stroke="#132e65" stroke-width="1.5"></path><path d="M964.28 78.96L955.37 198.96" stroke="#132e65" stroke-width="1.5"></path><path d="M955.37 198.96L955.37 198.96" stroke="#132e65" stroke-width="1.5"></path><path d="M955.37 198.96L1105.84 223.01" stroke="#132e65" stroke-width="1.5"></path><path d="M996.87 402.36L996.87 402.36" stroke="#132e65" stroke-width="1.5"></path><path d="M996.87 402.36L941.02 517.13" stroke="#132e65" stroke-width="1.5"></path><path d="M996.87 402.36L1139.58 352.34" stroke="#132e65" stroke-width="1.5"></path><path d="M941.02 517.13L941.02 517.13" stroke="#132e65" stroke-width="1.5"></path><path d="M941.02 517.13L948.76 687.77" stroke="#132e65" stroke-width="1.5"></path><path d="M941.02 517.13L1128.84 556.02" stroke="#132e65" stroke-width="1.5"></path><path d="M948.76 687.77L948.76 687.77" stroke="#132e65" stroke-width="1.5"></path><path d="M1126.03 -92.14L1126.03 -92.14" stroke="#132e65" stroke-width="1.5"></path><path d="M1126.03 -92.14L1243.07 -112.19" stroke="#132e65" stroke-width="1.5"></path><path d="M1126.03 -92.14L1133.77 43.63" stroke="#132e65" stroke-width="1.5"></path><path d="M1126.03 -92.14L1260.33 60.4" stroke="#132e65" stroke-width="1.5"></path><path d="M1126.03 -92.14L964.28 78.96" stroke="#132e65" stroke-width="1.5"></path><path d="M1133.77 43.63L1133.77 43.63" stroke="#132e65" stroke-width="1.5"></path><path d="M1133.77 43.63L1260.33 60.4" stroke="#132e65" stroke-width="1.5"></path><path d="M1133.77 43.63L964.28 78.96" stroke="#132e65" stroke-width="1.5"></path><path d="M1133.77 43.63L991.32 -58.46" stroke="#132e65" stroke-width="1.5"></path><path d="M1105.84 223.01L1105.84 223.01" stroke="#132e65" stroke-width="1.5"></path><path d="M1105.84 223.01L1139.58 352.34" stroke="#132e65" stroke-width="1.5"></path><path d="M1139.58 352.34L1139.58 352.34" stroke="#132e65" stroke-width="1.5"></path><path d="M1139.58 352.34L1238.73 381.25" stroke="#132e65" stroke-width="1.5"></path><path d="M1139.58 352.34L1266.49 241.97" stroke="#132e65" stroke-width="1.5"></path><path d="M1139.58 352.34L1128.84 556.02" stroke="#132e65" stroke-width="1.5"></path><path d="M1128.84 556.02L1128.84 556.02" stroke="#132e65" stroke-width="1.5"></path><path d="M1128.84 556.02L1115.88 678.98" stroke="#132e65" stroke-width="1.5"></path><path d="M1128.84 556.02L1296.64 535.79" stroke="#132e65" stroke-width="1.5"></path><path d="M1128.84 556.02L1277.47 673.02" stroke="#132e65" stroke-width="1.5"></path><path d="M1128.84 556.02L996.87 402.36" stroke="#132e65" stroke-width="1.5"></path><path d="M1115.88 678.98L1115.88 678.98" stroke="#132e65" stroke-width="1.5"></path><path d="M1115.88 678.98L1277.47 673.02" stroke="#132e65" stroke-width="1.5"></path><path d="M1115.88 678.98L948.76 687.77" stroke="#132e65" stroke-width="1.5"></path><path d="M1115.88 678.98L1296.64 535.79" stroke="#132e65" stroke-width="1.5"></path><path d="M1243.07 -112.19L1243.07 -112.19" stroke="#132e65" stroke-width="1.5"></path><path d="M1243.07 -112.19L1260.33 60.4" stroke="#132e65" stroke-width="1.5"></path><path d="M1243.07 -112.19L1133.77 43.63" stroke="#132e65" stroke-width="1.5"></path><path d="M1260.33 60.4L1260.33 60.4" stroke="#132e65" stroke-width="1.5"></path><path d="M1260.33 60.4L1400.75 61.78" stroke="#132e65" stroke-width="1.5"></path><path d="M1260.33 60.4L1266.49 241.97" stroke="#132e65" stroke-width="1.5"></path><path d="M1266.49 241.97L1266.49 241.97" stroke="#132e65" stroke-width="1.5"></path><path d="M1266.49 241.97L1238.73 381.25" stroke="#132e65" stroke-width="1.5"></path><path d="M1266.49 241.97L1404.52 193.45" stroke="#132e65" stroke-width="1.5"></path><path d="M1266.49 241.97L1105.84 223.01" stroke="#132e65" stroke-width="1.5"></path><path d="M1238.73 381.25L1238.73 381.25" stroke="#132e65" stroke-width="1.5"></path><path d="M1296.64 535.79L1296.64 535.79" stroke="#132e65" stroke-width="1.5"></path><path d="M1296.64 535.79L1277.47 673.02" stroke="#132e65" stroke-width="1.5"></path><path d="M1296.64 535.79L1435.3 517.47" stroke="#132e65" stroke-width="1.5"></path><path d="M1296.64 535.79L1389.5 664.53" stroke="#132e65" stroke-width="1.5"></path><path d="M1277.47 673.02L1277.47 673.02" stroke="#132e65" stroke-width="1.5"></path><path d="M1277.47 673.02L1389.5 664.53" stroke="#132e65" stroke-width="1.5"></path><path d="M1452.31 -97.42L1452.31 -97.42" stroke="#132e65" stroke-width="1.5"></path><path d="M1452.31 -97.42L1543.56 -85.46" stroke="#132e65" stroke-width="1.5"></path><path d="M1452.31 -97.42L1400.75 61.78" stroke="#132e65" stroke-width="1.5"></path><path d="M1452.31 -97.42L1579.52 48.82" stroke="#132e65" stroke-width="1.5"></path><path d="M1452.31 -97.42L1243.07 -112.19" stroke="#132e65" stroke-width="1.5"></path><path d="M1452.31 -97.42L1260.33 60.4" stroke="#132e65" stroke-width="1.5"></path><path d="M1452.31 -97.42L1404.52 193.45" stroke="#132e65" stroke-width="1.5"></path><path d="M1400.75 61.78L1400.75 61.78" stroke="#132e65" stroke-width="1.5"></path><path d="M1400.75 61.78L1404.52 193.45" stroke="#132e65" stroke-width="1.5"></path><path d="M1404.52 193.45L1404.52 193.45" stroke="#132e65" stroke-width="1.5"></path><path d="M1404.52 193.45L1260.33 60.4" stroke="#132e65" stroke-width="1.5"></path><path d="M1404.52 193.45L1542.33 343.48" stroke="#132e65" stroke-width="1.5"></path><path d="M1404.52 193.45L1604.58 240.35" stroke="#132e65" stroke-width="1.5"></path><path d="M1404.52 193.45L1451.5 407.32" stroke="#132e65" stroke-width="1.5"></path><path d="M1451.5 407.32L1451.5 407.32" stroke="#132e65" stroke-width="1.5"></path><path d="M1451.5 407.32L1542.33 343.48" stroke="#132e65" stroke-width="1.5"></path><path d="M1451.5 407.32L1435.3 517.47" stroke="#132e65" stroke-width="1.5"></path><path d="M1451.5 407.32L1554.33 561.91" stroke="#132e65" stroke-width="1.5"></path><path d="M1451.5 407.32L1296.64 535.79" stroke="#132e65" stroke-width="1.5"></path><path d="M1435.3 517.47L1435.3 517.47" stroke="#132e65" stroke-width="1.5"></path><path d="M1435.3 517.47L1554.33 561.91" stroke="#132e65" stroke-width="1.5"></path><path d="M1435.3 517.47L1389.5 664.53" stroke="#132e65" stroke-width="1.5"></path><path d="M1389.5 664.53L1389.5 664.53" stroke="#132e65" stroke-width="1.5"></path><path d="M1389.5 664.53L1554.33 561.91" stroke="#132e65" stroke-width="1.5"></path><path d="M1389.5 664.53L1599.3 696.89" stroke="#132e65" stroke-width="1.5"></path><path d="M1543.56 -85.46L1543.56 -85.46" stroke="#132e65" stroke-width="1.5"></path><path d="M1543.56 -85.46L1579.52 48.82" stroke="#132e65" stroke-width="1.5"></path><path d="M1579.52 48.82L1579.52 48.82" stroke="#132e65" stroke-width="1.5"></path><path d="M1579.52 48.82L1400.75 61.78" stroke="#132e65" stroke-width="1.5"></path><path d="M1579.52 48.82L1604.58 240.35" stroke="#132e65" stroke-width="1.5"></path><path d="M1604.58 240.35L1604.58 240.35" stroke="#132e65" stroke-width="1.5"></path><path d="M1604.58 240.35L1542.33 343.48" stroke="#132e65" stroke-width="1.5"></path><path d="M1542.33 343.48L1542.33 343.48" stroke="#132e65" stroke-width="1.5"></path><path d="M1542.33 343.48L1435.3 517.47" stroke="#132e65" stroke-width="1.5"></path><path d="M1542.33 343.48L1554.33 561.91" stroke="#132e65" stroke-width="1.5"></path><path d="M1542.33 343.48L1266.49 241.97" stroke="#132e65" stroke-width="1.5"></path><path d="M1554.33 561.91L1554.33 561.91" stroke="#132e65" stroke-width="1.5"></path><path d="M1554.33 561.91L1599.3 696.89" stroke="#132e65" stroke-width="1.5"></path><path d="M1554.33 561.91L1296.64 535.79" stroke="#132e65" stroke-width="1.5"></path><path d="M1599.3 696.89L1599.3 696.89" stroke="#132e65" stroke-width="1.5"></path><circle r="5" cx="-94.9" cy="551.68" fill="#132e65"></circle><circle r="5" cx="-66.3" cy="646.22" fill="#132e65"></circle><circle r="5" cx="50.32" cy="338.99" fill="#132e65"></circle><circle r="5" cx="110.06" cy="543.05" fill="#132e65"></circle><circle r="5" cx="109.13" cy="677.53" fill="#132e65"></circle><circle r="5" cx="242.95" cy="398.21" fill="#132e65"></circle><circle r="5" cx="212.42" cy="490.34" fill="#132e65"></circle><circle r="5" cx="256.7" cy="701.01" fill="#132e65"></circle><circle r="5" cx="354.66" cy="390.91" fill="#132e65"></circle><circle r="5" cx="356.3" cy="496.79" fill="#132e65"></circle><circle r="5" cx="403.16" cy="652.46" fill="#132e65"></circle><circle r="5" cx="531.92" cy="352.19" fill="#132e65"></circle><circle r="5" cx="557.07" cy="498.89" fill="#132e65"></circle><circle r="5" cx="559.71" cy="666.37" fill="#132e65"></circle><circle r="5" cx="677.2" cy="400.22" fill="#132e65"></circle><circle r="5" cx="708.03" cy="499.12" fill="#132e65"></circle><circle r="5" cx="710.12" cy="702.06" fill="#132e65"></circle><circle r="5" cx="817.91" cy="208.66" fill="#132e65"></circle><circle r="5" cx="822.81" cy="358.37" fill="#132e65"></circle><circle r="5" cx="852.49" cy="518.23" fill="#132e65"></circle><circle r="5" cx="805.19" cy="671.92" fill="#132e65"></circle><circle r="5" cx="991.32" cy="-58.46" fill="#132e65"></circle><circle r="5" cx="964.28" cy="78.96" fill="#132e65"></circle><circle r="5" cx="955.37" cy="198.96" fill="#132e65"></circle><circle r="5" cx="996.87" cy="402.36" fill="#132e65"></circle><circle r="5" cx="941.02" cy="517.13" fill="#132e65"></circle><circle r="5" cx="948.76" cy="687.77" fill="#132e65"></circle><circle r="5" cx="1126.03" cy="-92.14" fill="#132e65"></circle><circle r="5" cx="1133.77" cy="43.63" fill="#132e65"></circle><circle r="5" cx="1105.84" cy="223.01" fill="#132e65"></circle><circle r="5" cx="1139.58" cy="352.34" fill="#132e65"></circle><circle r="5" cx="1128.84" cy="556.02" fill="#132e65"></circle><circle r="5" cx="1115.88" cy="678.98" fill="#132e65"></circle><circle r="5" cx="1243.07" cy="-112.19" fill="#132e65"></circle><circle r="5" cx="1260.33" cy="60.4" fill="#132e65"></circle><circle r="5" cx="1266.49" cy="241.97" fill="#132e65"></circle><circle r="5" cx="1238.73" cy="381.25" fill="#132e65"></circle><circle r="5" cx="1296.64" cy="535.79" fill="#132e65"></circle><circle r="5" cx="1277.47" cy="673.02" fill="#132e65"></circle><circle r="5" cx="1452.31" cy="-97.42" fill="#132e65"></circle><circle r="5" cx="1400.75" cy="61.78" fill="#132e65"></circle><circle r="5" cx="1404.52" cy="193.45" fill="#132e65"></circle><circle r="5" cx="1451.5" cy="407.32" fill="#132e65"></circle><circle r="5" cx="1435.3" cy="517.47" fill="#132e65"></circle><circle r="5" cx="1389.5" cy="664.53" fill="#132e65"></circle><circle r="5" cx="1543.56" cy="-85.46" fill="#132e65"></circle><circle r="5" cx="1579.52" cy="48.82" fill="#132e65"></circle><circle r="5" cx="1604.58" cy="240.35" fill="#132e65"></circle><circle r="5" cx="1542.33" cy="343.48" fill="#132e65"></circle><circle r="5" cx="1554.33" cy="561.91" fill="#132e65"></circle><circle r="5" cx="1599.3" cy="696.89" fill="#132e65"></circle><path d="M-58.41 676.88L-58.41 676.88" stroke="hsl(228.5, 77.2%, 51.5%)" stroke-width="1.5"></path><path d="M-58.41 676.88L-46.6 525.38" stroke="hsl(228.5, 77.2%, 51.5%)" stroke-width="1.5"></path><path d="M-58.41 676.88L109.95 712.06" stroke="hsl(228.5, 77.2%, 51.5%)" stroke-width="1.5"></path><path d="M109.95 712.06L109.95 712.06" stroke="hsl(228.5, 77.2%, 51.5%)" stroke-width="1.5"></path><path d="M109.95 712.06L222.78 652.23" stroke="hsl(228.5, 77.2%, 51.5%)" stroke-width="1.5"></path><path d="M109.95 712.06L79.85 532.1" stroke="hsl(228.5, 77.2%, 51.5%)" stroke-width="1.5"></path><path d="M109.95 712.06L224.05 524.89" stroke="hsl(228.5, 77.2%, 51.5%)" stroke-width="1.5"></path><path d="M1155.42 243.87L1155.42 243.87" stroke="hsl(228.5, 77.2%, 51.5%)" stroke-width="1.5"></path><path d="M1155.42 243.87L1117.54 371.13" stroke="hsl(228.5, 77.2%, 51.5%)" stroke-width="1.5"></path><path d="M1155.42 243.87L974.27 369.44" stroke="hsl(228.5, 77.2%, 51.5%)" stroke-width="1.5"></path><path d="M1155.42 243.87L1289.51 59.03" stroke="hsl(228.5, 77.2%, 51.5%)" stroke-width="1.5"></path><path d="M1155.42 243.87L1152.72 522.1" stroke="hsl(228.5, 77.2%, 51.5%)" stroke-width="1.5"></path><path d="M1155.42 243.87L1398.29 395.32" stroke="hsl(228.5, 77.2%, 51.5%)" stroke-width="1.5"></path><path d="M1155.42 243.87L1395.67 87.68" stroke="hsl(228.5, 77.2%, 51.5%)" stroke-width="1.5"></path><path d="M1553.62 488.19L1553.62 488.19" stroke="hsl(228.5, 77.2%, 51.5%)" stroke-width="1.5"></path><path d="M1553.62 488.19L1444.6 539.23" stroke="hsl(228.5, 77.2%, 51.5%)" stroke-width="1.5"></path><path d="M1553.62 488.19L1398.29 395.32" stroke="hsl(228.5, 77.2%, 51.5%)" stroke-width="1.5"></path><path d="M1553.62 488.19L1461.17 649.61" stroke="hsl(228.5, 77.2%, 51.5%)" stroke-width="1.5"></path><path d="M-46.6 525.38L-46.6 525.38" stroke="hsl(228.5, 77.2%, 51.5%)" stroke-width="1.5"></path><path d="M-46.6 525.38L79.85 532.1" stroke="hsl(228.5, 77.2%, 51.5%)" stroke-width="1.5"></path><path d="M-46.6 525.38L109.95 712.06" stroke="hsl(228.5, 77.2%, 51.5%)" stroke-width="1.5"></path><path d="M-46.6 525.38L224.05 524.89" stroke="hsl(228.5, 77.2%, 51.5%)" stroke-width="1.5"></path><path d="M79.85 532.1L79.85 532.1" stroke="hsl(228.5, 77.2%, 51.5%)" stroke-width="1.5"></path><path d="M79.85 532.1L224.05 524.89" stroke="hsl(228.5, 77.2%, 51.5%)" stroke-width="1.5"></path><path d="M79.85 532.1L222.78 652.23" stroke="hsl(228.5, 77.2%, 51.5%)" stroke-width="1.5"></path><path d="M79.85 532.1L-58.41 676.88" stroke="hsl(228.5, 77.2%, 51.5%)" stroke-width="1.5"></path><path d="M224.05 524.89L224.05 524.89" stroke="hsl(228.5, 77.2%, 51.5%)" stroke-width="1.5"></path><path d="M224.05 524.89L222.78 652.23" stroke="hsl(228.5, 77.2%, 51.5%)" stroke-width="1.5"></path><path d="M222.78 652.23L222.78 652.23" stroke="hsl(228.5, 77.2%, 51.5%)" stroke-width="1.5"></path><path d="M222.78 652.23L386.06 678.83" stroke="hsl(228.5, 77.2%, 51.5%)" stroke-width="1.5"></path><path d="M222.78 652.23L389.59 513.98" stroke="hsl(228.5, 77.2%, 51.5%)" stroke-width="1.5"></path><path d="M222.78 652.23L-58.41 676.88" stroke="hsl(228.5, 77.2%, 51.5%)" stroke-width="1.5"></path><path d="M389.59 513.98L389.59 513.98" stroke="hsl(228.5, 77.2%, 51.5%)" stroke-width="1.5"></path><path d="M389.59 513.98L543.64 494.61" stroke="hsl(228.5, 77.2%, 51.5%)" stroke-width="1.5"></path><path d="M389.59 513.98L386.06 678.83" stroke="hsl(228.5, 77.2%, 51.5%)" stroke-width="1.5"></path><path d="M389.59 513.98L224.05 524.89" stroke="hsl(228.5, 77.2%, 51.5%)" stroke-width="1.5"></path><path d="M389.59 513.98L526.1 653.98" stroke="hsl(228.5, 77.2%, 51.5%)" stroke-width="1.5"></path><path d="M389.59 513.98L651.89 542.68" stroke="hsl(228.5, 77.2%, 51.5%)" stroke-width="1.5"></path><path d="M386.06 678.83L386.06 678.83" stroke="hsl(228.5, 77.2%, 51.5%)" stroke-width="1.5"></path><path d="M386.06 678.83L526.1 653.98" stroke="hsl(228.5, 77.2%, 51.5%)" stroke-width="1.5"></path><path d="M386.06 678.83L224.05 524.89" stroke="hsl(228.5, 77.2%, 51.5%)" stroke-width="1.5"></path><path d="M543.64 494.61L543.64 494.61" stroke="hsl(228.5, 77.2%, 51.5%)" stroke-width="1.5"></path><path d="M543.64 494.61L651.89 542.68" stroke="hsl(228.5, 77.2%, 51.5%)" stroke-width="1.5"></path><path d="M526.1 653.98L526.1 653.98" stroke="hsl(228.5, 77.2%, 51.5%)" stroke-width="1.5"></path><path d="M526.1 653.98L667.62 655.47" stroke="hsl(228.5, 77.2%, 51.5%)" stroke-width="1.5"></path><path d="M704.74 385.04L704.74 385.04" stroke="hsl(228.5, 77.2%, 51.5%)" stroke-width="1.5"></path><path d="M704.74 385.04L651.89 542.68" stroke="hsl(228.5, 77.2%, 51.5%)" stroke-width="1.5"></path><path d="M704.74 385.04L828.23 525.26" stroke="hsl(228.5, 77.2%, 51.5%)" stroke-width="1.5"></path><path d="M651.89 542.68L651.89 542.68" stroke="hsl(228.5, 77.2%, 51.5%)" stroke-width="1.5"></path><path d="M651.89 542.68L667.62 655.47" stroke="hsl(228.5, 77.2%, 51.5%)" stroke-width="1.5"></path><path d="M651.89 542.68L526.1 653.98" stroke="hsl(228.5, 77.2%, 51.5%)" stroke-width="1.5"></path><path d="M651.89 542.68L828.23 525.26" stroke="hsl(228.5, 77.2%, 51.5%)" stroke-width="1.5"></path><path d="M651.89 542.68L796.69 660.24" stroke="hsl(228.5, 77.2%, 51.5%)" stroke-width="1.5"></path><path d="M667.62 655.47L667.62 655.47" stroke="hsl(228.5, 77.2%, 51.5%)" stroke-width="1.5"></path><path d="M667.62 655.47L796.69 660.24" stroke="hsl(228.5, 77.2%, 51.5%)" stroke-width="1.5"></path><path d="M667.62 655.47L543.64 494.61" stroke="hsl(228.5, 77.2%, 51.5%)" stroke-width="1.5"></path><path d="M667.62 655.47L828.23 525.26" stroke="hsl(228.5, 77.2%, 51.5%)" stroke-width="1.5"></path><path d="M667.62 655.47L704.74 385.04" stroke="hsl(228.5, 77.2%, 51.5%)" stroke-width="1.5"></path><path d="M828.23 525.26L828.23 525.26" stroke="hsl(228.5, 77.2%, 51.5%)" stroke-width="1.5"></path><path d="M828.23 525.26L950.43 515.31" stroke="hsl(228.5, 77.2%, 51.5%)" stroke-width="1.5"></path><path d="M828.23 525.26L796.69 660.24" stroke="hsl(228.5, 77.2%, 51.5%)" stroke-width="1.5"></path><path d="M796.69 660.24L796.69 660.24" stroke="hsl(228.5, 77.2%, 51.5%)" stroke-width="1.5"></path><path d="M974.27 369.44L974.27 369.44" stroke="hsl(228.5, 77.2%, 51.5%)" stroke-width="1.5"></path><path d="M974.27 369.44L1117.54 371.13" stroke="hsl(228.5, 77.2%, 51.5%)" stroke-width="1.5"></path><path d="M974.27 369.44L950.43 515.31" stroke="hsl(228.5, 77.2%, 51.5%)" stroke-width="1.5"></path><path d="M974.27 369.44L828.23 525.26" stroke="hsl(228.5, 77.2%, 51.5%)" stroke-width="1.5"></path><path d="M950.43 515.31L950.43 515.31" stroke="hsl(228.5, 77.2%, 51.5%)" stroke-width="1.5"></path><path d="M950.43 515.31L995 692.57" stroke="hsl(228.5, 77.2%, 51.5%)" stroke-width="1.5"></path><path d="M950.43 515.31L1152.72 522.1" stroke="hsl(228.5, 77.2%, 51.5%)" stroke-width="1.5"></path><path d="M950.43 515.31L1110.63 647.38" stroke="hsl(228.5, 77.2%, 51.5%)" stroke-width="1.5"></path><path d="M950.43 515.31L796.69 660.24" stroke="hsl(228.5, 77.2%, 51.5%)" stroke-width="1.5"></path><path d="M995 692.57L995 692.57" stroke="hsl(228.5, 77.2%, 51.5%)" stroke-width="1.5"></path><path d="M995 692.57L1110.63 647.38" stroke="hsl(228.5, 77.2%, 51.5%)" stroke-width="1.5"></path><path d="M995 692.57L796.69 660.24" stroke="hsl(228.5, 77.2%, 51.5%)" stroke-width="1.5"></path><path d="M995 692.57L1152.72 522.1" stroke="hsl(228.5, 77.2%, 51.5%)" stroke-width="1.5"></path><path d="M1117.54 371.13L1117.54 371.13" stroke="hsl(228.5, 77.2%, 51.5%)" stroke-width="1.5"></path><path d="M1117.54 371.13L1152.72 522.1" stroke="hsl(228.5, 77.2%, 51.5%)" stroke-width="1.5"></path><path d="M1117.54 371.13L1240.21 550.16" stroke="hsl(228.5, 77.2%, 51.5%)" stroke-width="1.5"></path><path d="M1117.54 371.13L950.43 515.31" stroke="hsl(228.5, 77.2%, 51.5%)" stroke-width="1.5"></path><path d="M1152.72 522.1L1152.72 522.1" stroke="hsl(228.5, 77.2%, 51.5%)" stroke-width="1.5"></path><path d="M1152.72 522.1L1240.21 550.16" stroke="hsl(228.5, 77.2%, 51.5%)" stroke-width="1.5"></path><path d="M1152.72 522.1L1110.63 647.38" stroke="hsl(228.5, 77.2%, 51.5%)" stroke-width="1.5"></path><path d="M1110.63 647.38L1110.63 647.38" stroke="hsl(228.5, 77.2%, 51.5%)" stroke-width="1.5"></path><path d="M1110.63 647.38L1240.21 550.16" stroke="hsl(228.5, 77.2%, 51.5%)" stroke-width="1.5"></path><path d="M1110.63 647.38L1299.78 672.36" stroke="hsl(228.5, 77.2%, 51.5%)" stroke-width="1.5"></path><path d="M1110.63 647.38L1117.54 371.13" stroke="hsl(228.5, 77.2%, 51.5%)" stroke-width="1.5"></path><path d="M1263.05 -63.98L1263.05 -63.98" stroke="hsl(228.5, 77.2%, 51.5%)" stroke-width="1.5"></path><path d="M1263.05 -63.98L1289.51 59.03" stroke="hsl(228.5, 77.2%, 51.5%)" stroke-width="1.5"></path><path d="M1263.05 -63.98L1459.17 -41.54" stroke="hsl(228.5, 77.2%, 51.5%)" stroke-width="1.5"></path><path d="M1263.05 -63.98L1395.67 87.68" stroke="hsl(228.5, 77.2%, 51.5%)" stroke-width="1.5"></path><path d="M1289.51 59.03L1289.51 59.03" stroke="hsl(228.5, 77.2%, 51.5%)" stroke-width="1.5"></path><path d="M1289.51 59.03L1395.67 87.68" stroke="hsl(228.5, 77.2%, 51.5%)" stroke-width="1.5"></path><path d="M1289.51 59.03L1459.17 -41.54" stroke="hsl(228.5, 77.2%, 51.5%)" stroke-width="1.5"></path><path d="M1289.51 59.03L1443.17 234.6" stroke="hsl(228.5, 77.2%, 51.5%)" stroke-width="1.5"></path><path d="M1240.21 550.16L1240.21 550.16" stroke="hsl(228.5, 77.2%, 51.5%)" stroke-width="1.5"></path><path d="M1240.21 550.16L1299.78 672.36" stroke="hsl(228.5, 77.2%, 51.5%)" stroke-width="1.5"></path><path d="M1240.21 550.16L1444.6 539.23" stroke="hsl(228.5, 77.2%, 51.5%)" stroke-width="1.5"></path><path d="M1299.78 672.36L1299.78 672.36" stroke="hsl(228.5, 77.2%, 51.5%)" stroke-width="1.5"></path><path d="M1299.78 672.36L1461.17 649.61" stroke="hsl(228.5, 77.2%, 51.5%)" stroke-width="1.5"></path><path d="M1299.78 672.36L1444.6 539.23" stroke="hsl(228.5, 77.2%, 51.5%)" stroke-width="1.5"></path><path d="M1459.17 -41.54L1459.17 -41.54" stroke="hsl(228.5, 77.2%, 51.5%)" stroke-width="1.5"></path><path d="M1459.17 -41.54L1578.87 -64.52" stroke="hsl(228.5, 77.2%, 51.5%)" stroke-width="1.5"></path><path d="M1459.17 -41.54L1395.67 87.68" stroke="hsl(228.5, 77.2%, 51.5%)" stroke-width="1.5"></path><path d="M1459.17 -41.54L1575.29 105.74" stroke="hsl(228.5, 77.2%, 51.5%)" stroke-width="1.5"></path><path d="M1395.67 87.68L1395.67 87.68" stroke="hsl(228.5, 77.2%, 51.5%)" stroke-width="1.5"></path><path d="M1443.17 234.6L1443.17 234.6" stroke="hsl(228.5, 77.2%, 51.5%)" stroke-width="1.5"></path><path d="M1443.17 234.6L1547.75 254.68" stroke="hsl(228.5, 77.2%, 51.5%)" stroke-width="1.5"></path><path d="M1443.17 234.6L1395.67 87.68" stroke="hsl(228.5, 77.2%, 51.5%)" stroke-width="1.5"></path><path d="M1443.17 234.6L1398.29 395.32" stroke="hsl(228.5, 77.2%, 51.5%)" stroke-width="1.5"></path><path d="M1443.17 234.6L1575.29 105.74" stroke="hsl(228.5, 77.2%, 51.5%)" stroke-width="1.5"></path><path d="M1398.29 395.32L1398.29 395.32" stroke="hsl(228.5, 77.2%, 51.5%)" stroke-width="1.5"></path><path d="M1398.29 395.32L1444.6 539.23" stroke="hsl(228.5, 77.2%, 51.5%)" stroke-width="1.5"></path><path d="M1398.29 395.32L1547.75 254.68" stroke="hsl(228.5, 77.2%, 51.5%)" stroke-width="1.5"></path><path d="M1398.29 395.32L1240.21 550.16" stroke="hsl(228.5, 77.2%, 51.5%)" stroke-width="1.5"></path><path d="M1398.29 395.32L1461.17 649.61" stroke="hsl(228.5, 77.2%, 51.5%)" stroke-width="1.5"></path><path d="M1444.6 539.23L1444.6 539.23" stroke="hsl(228.5, 77.2%, 51.5%)" stroke-width="1.5"></path><path d="M1444.6 539.23L1461.17 649.61" stroke="hsl(228.5, 77.2%, 51.5%)" stroke-width="1.5"></path><path d="M1461.17 649.61L1461.17 649.61" stroke="hsl(228.5, 77.2%, 51.5%)" stroke-width="1.5"></path><path d="M1461.17 649.61L1556.42 693.78" stroke="hsl(228.5, 77.2%, 51.5%)" stroke-width="1.5"></path><path d="M1578.87 -64.52L1578.87 -64.52" stroke="hsl(228.5, 77.2%, 51.5%)" stroke-width="1.5"></path><path d="M1578.87 -64.52L1575.29 105.74" stroke="hsl(228.5, 77.2%, 51.5%)" stroke-width="1.5"></path><path d="M1578.87 -64.52L1395.67 87.68" stroke="hsl(228.5, 77.2%, 51.5%)" stroke-width="1.5"></path><path d="M1578.87 -64.52L1289.51 59.03" stroke="hsl(228.5, 77.2%, 51.5%)" stroke-width="1.5"></path><path d="M1578.87 -64.52L1263.05 -63.98" stroke="hsl(228.5, 77.2%, 51.5%)" stroke-width="1.5"></path><path d="M1575.29 105.74L1575.29 105.74" stroke="hsl(228.5, 77.2%, 51.5%)" stroke-width="1.5"></path><path d="M1575.29 105.74L1547.75 254.68" stroke="hsl(228.5, 77.2%, 51.5%)" stroke-width="1.5"></path><path d="M1547.75 254.68L1547.75 254.68" stroke="hsl(228.5, 77.2%, 51.5%)" stroke-width="1.5"></path><path d="M1556.42 693.78L1556.42 693.78" stroke="hsl(228.5, 77.2%, 51.5%)" stroke-width="1.5"></path><path d="M1556.42 693.78L1444.6 539.23" stroke="hsl(228.5, 77.2%, 51.5%)" stroke-width="1.5"></path><path d="M1556.42 693.78L1553.62 488.19" stroke="hsl(228.5, 77.2%, 51.5%)" stroke-width="1.5"></path><circle r="25" cx="-58.41" cy="676.88" fill="url(&quot;#SvgjsRadialGradient1001&quot;)"></circle><circle r="25" cx="109.95" cy="712.06" fill="url(&quot;#SvgjsRadialGradient1001&quot;)"></circle><circle r="25" cx="1155.42" cy="243.87" fill="url(&quot;#SvgjsRadialGradient1001&quot;)"></circle><circle r="25" cx="1553.62" cy="488.19" fill="url(&quot;#SvgjsRadialGradient1001&quot;)"></circle><circle r="5" cx="-46.6" cy="525.38" fill="#8b9ad9"></circle><circle r="5" cx="79.85" cy="532.1" fill="#8b9ad9"></circle><circle r="5" cx="224.05" cy="524.89" fill="#8b9ad9"></circle><circle r="5" cx="222.78" cy="652.23" fill="#8b9ad9"></circle><circle r="5" cx="389.59" cy="513.98" fill="#8b9ad9"></circle><circle r="5" cx="386.06" cy="678.83" fill="#8b9ad9"></circle><circle r="5" cx="543.64" cy="494.61" fill="#8b9ad9"></circle><circle r="5" cx="526.1" cy="653.98" fill="#8b9ad9"></circle><circle r="5" cx="704.74" cy="385.04" fill="#8b9ad9"></circle><circle r="5" cx="651.89" cy="542.68" fill="#8b9ad9"></circle><circle r="5" cx="667.62" cy="655.47" fill="#8b9ad9"></circle><circle r="5" cx="828.23" cy="525.26" fill="#8b9ad9"></circle><circle r="5" cx="796.69" cy="660.24" fill="#8b9ad9"></circle><circle r="5" cx="974.27" cy="369.44" fill="#8b9ad9"></circle><circle r="5" cx="950.43" cy="515.31" fill="#8b9ad9"></circle><circle r="5" cx="995" cy="692.57" fill="#8b9ad9"></circle><circle r="5" cx="1117.54" cy="371.13" fill="#8b9ad9"></circle><circle r="5" cx="1152.72" cy="522.1" fill="#8b9ad9"></circle><circle r="5" cx="1110.63" cy="647.38" fill="#8b9ad9"></circle><circle r="5" cx="1263.05" cy="-63.98" fill="#8b9ad9"></circle><circle r="5" cx="1289.51" cy="59.03" fill="#8b9ad9"></circle><circle r="5" cx="1240.21" cy="550.16" fill="#8b9ad9"></circle><circle r="5" cx="1299.78" cy="672.36" fill="#8b9ad9"></circle><circle r="5" cx="1459.17" cy="-41.54" fill="#8b9ad9"></circle><circle r="5" cx="1395.67" cy="87.68" fill="#8b9ad9"></circle><circle r="5" cx="1443.17" cy="234.6" fill="#8b9ad9"></circle><circle r="5" cx="1398.29" cy="395.32" fill="#8b9ad9"></circle><circle r="5" cx="1444.6" cy="539.23" fill="#8b9ad9"></circle><circle r="5" cx="1461.17" cy="649.61" fill="#8b9ad9"></circle><circle r="5" cx="1578.87" cy="-64.52" fill="#8b9ad9"></circle><circle r="5" cx="1575.29" cy="105.74" fill="#8b9ad9"></circle><circle r="5" cx="1547.75" cy="254.68" fill="#8b9ad9"></circle><circle r="5" cx="1556.42" cy="693.78" fill="#8b9ad9"></circle></g><defs><mask id="SvgjsMask1000"><rect width="1440" height="560" fill="#ffffff"></rect></mask><radialGradient id="SvgjsRadialGradient1001"><stop stop-color="#ffffff" offset="0.1"></stop><stop stop-color="#1735b3" offset="0.2"></stop><stop stop-color="rgba(23, 53, 179, 0)" offset="1"></stop></radialGradient></defs></svg>